<svg xmlns="http://www.w3.org/2000/svg" viewBox="0 0 513.164 513.164"><circle cx="373.527" cy="261.818" r="23.273"/><path d="M326.982 192H187.345c-6.982 0-11.636 4.655-11.636 11.636s4.655 11.636 11.636 11.636h139.636c6.982 0 11.636-4.655 11.636-11.636S333.964 192 326.982 192z"/><path d="M478.255 250.182c-6.982 0-12.8-3.491-16.291-10.473-9.309-18.618-20.945-36.073-37.236-52.364l17.455-61.673c1.164-3.491 0-6.982-2.327-10.473-2.327-2.327-5.818-4.655-9.309-4.655-31.418-1.164-57.018 9.309-76.8 31.418-9.309-3.491-19.782-6.982-30.255-10.473 8.145-12.8 12.8-27.927 12.8-44.218 0-45.382-36.073-81.455-81.455-81.455s-81.455 36.073-81.455 81.455 36.073 81.455 81.455 81.455c19.782 0 37.236-6.982 51.2-18.618 15.127 3.491 33.745 10.473 45.382 16.291 4.655 2.327 10.473 1.164 13.964-3.491 12.8-16.291 27.927-25.6 47.709-27.927l-15.127 53.527c-1.164 4.655 0 9.309 3.491 11.636 16.291 15.127 29.091 31.418 37.236 50.036 6.982 15.127 20.945 23.273 37.236 23.273 6.982 0 11.636 4.655 11.636 11.636v46.545c0 6.982-4.655 11.636-11.636 11.636h-19.782c-3.491 0-5.818 1.164-8.145 3.491-5.818 6.982-10.473 11.636-16.291 16.291-5.818 5.818-12.8 11.636-22.109 23.273-17.455 19.782-26.764 45.382-26.764 73.309v11.636c0 6.982-4.655 11.636-11.636 11.636h-23.273c-6.982 0-11.636-4.655-11.636-11.636v-22.109c0-6.982-4.655-11.636-11.636-11.636-6.982 0-11.636 4.655-11.636 11.636v22.109c0 19.782 15.127 34.909 34.909 34.909H371.2c19.782 0 34.909-15.127 34.909-34.909v-11.636c0-22.109 6.982-43.055 20.945-58.182 9.309-10.473 15.127-16.291 20.945-22.109 4.655-3.491 8.145-8.145 12.8-12.8h17.455c19.782 0 34.909-15.127 34.909-34.909v-46.545c.001-19.78-15.127-34.907-34.908-34.907zM257.164 145.455c-32.582 0-58.182-25.6-58.182-58.182s25.6-58.182 58.182-58.182 58.182 25.6 58.182 58.182c-.001 32.582-25.601 58.182-58.182 58.182zM283.927 446.836c-34.909 3.491-72.145 0-104.727-11.636-3.491-1.164-6.982-1.164-10.473 1.164-2.327 2.327-4.655 5.818-4.655 9.309v25.6c0 6.982-4.655 11.636-11.636 11.636h-23.273c-6.982 0-11.636-4.655-11.636-11.636v-26.764c0-24.436-8.145-48.873-24.436-68.655-3.491-3.491-6.982-8.145-10.473-11.636-9.309-10.473-15.127-18.618-19.782-27.927-2.327-8.145-3.491-16.291-3.491-27.927 0-61.673 41.891-117.527 109.382-145.455 5.818-2.327 9.309-9.309 5.818-15.127-2.327-5.818-9.309-9.309-15.127-5.818C88.436 171.055 43.055 229.236 36.073 294.4c-6.982-3.491-12.8-11.636-12.8-20.945 0-6.982-4.655-11.636-11.636-11.636S0 266.473 0 273.455c0 22.109 15.127 39.564 34.909 45.382 1.164 9.309 2.327 18.618 5.818 25.6 4.655 12.8 12.8 22.109 23.273 34.909 3.491 3.491 6.982 8.145 10.473 12.8 11.636 15.127 18.618 34.909 18.618 53.527v26.764c0 19.782 15.127 34.909 34.909 34.909h23.273c19.782 0 34.909-15.127 34.909-34.909v-9.309c31.418 9.309 66.327 11.636 100.073 8.145 5.818-1.164 10.473-6.982 10.473-12.8-.001-8.146-5.819-12.8-12.801-11.637z"/><path d="M268.8 98.909V64c0-6.982-4.655-11.636-11.636-11.636h-11.636c-6.982 0-11.636 4.655-11.636 11.636s4.655 11.636 11.636 11.636v23.273c-6.982 0-11.636 4.655-11.636 11.636s4.655 11.636 11.636 11.636H268.8c6.982 0 11.636-4.655 11.636-11.636s-4.654-11.636-11.636-11.636z"/></svg>